<svg width="24" height="24" viewBox="0 0 24 24" fill="none" xmlns="http://www.w3.org/2000/svg">
<path d="M12.75 4C12.75 3.58579 12.4142 3.25 12 3.25C11.5858 3.25 11.25 3.58579 11.25 4V8C11.25 8.41421 11.5858 8.75 12 8.75C12.4142 8.75 12.75 8.41421 12.75 8V4Z" fill="#718E9C"/>
<path d="M6.53033 5.46967C6.23744 5.17678 5.76256 5.17678 5.46967 5.46967C5.17678 5.76256 5.17678 6.23744 5.46967 6.53033L8.46967 9.53033C8.76256 9.82322 9.23744 9.82322 9.53033 9.53033C9.82322 9.23744 9.82322 8.76256 9.53033 8.46967L6.53033 5.46967Z" fill="#718E9C"/>
<path d="M18.5303 6.53033C18.8232 6.23744 18.8232 5.76256 18.5303 5.46967C18.2374 5.17678 17.7626 5.17678 17.4697 5.46967L14.4697 8.46967C14.1768 8.76256 14.1768 9.23744 14.4697 9.53033C14.7626 9.82322 15.2374 9.82322 15.5303 9.53033L18.5303 6.53033Z" fill="#718E9C"/>
<path d="M11 12C11 11.4477 11.4477 11 12 11H12.01C12.5623 11 13.01 11.4477 13.01 12V12.01C13.01 12.5623 12.5623 13.01 12.01 13.01H12C11.4477 13.01 11 12.5623 11 12.01V12Z" fill="#718E9C"/>
<path d="M9.73501 12.1508C9.81741 12.5567 9.55513 12.9526 9.1492 13.035C7.68544 13.3321 6.30313 13.8537 5.03953 14.5624C4.22613 15.0187 3.75 15.9529 3.75 16.9984C3.75 17.6895 4.31035 18.2499 5 18.2499H6C6.69036 18.2499 7.25 17.6903 7.25 16.9999V16.3899C7.25 15.6587 7.71219 14.9633 8.46583 14.7463C9.58893 14.4229 10.7749 14.2499 12 14.2499C13.2251 14.2499 14.4111 14.4229 15.5342 14.7463C16.2878 14.9633 16.75 15.6587 16.75 16.3899V16.9999C16.75 17.6903 17.3096 18.2499 18 18.2499H19C19.6896 18.2499 20.25 17.6895 20.25 16.9984C20.25 15.9529 19.7739 15.0187 18.9605 14.5624C17.6969 13.8537 16.3146 13.3321 14.8508 13.035C14.4449 12.9526 14.1826 12.5567 14.265 12.1508C14.3474 11.7448 14.7433 11.4825 15.1492 11.5649C16.7683 11.8936 18.2973 12.4706 19.6943 13.2542C21.0753 14.0288 21.75 15.528 21.75 16.9984C21.75 18.5165 20.5195 19.7499 19 19.7499H18C16.4812 19.7499 15.25 18.5187 15.25 16.9999V16.3899C15.25 16.2735 15.18 16.2052 15.1191 16.1877C14.1296 15.9028 13.0833 15.7499 12 15.7499C10.9167 15.7499 9.87041 15.9028 8.88086 16.1877C8.81996 16.2052 8.75 16.2735 8.75 16.3899V16.9999C8.75 18.5187 7.51878 19.7499 6 19.7499H5C3.48051 19.7499 2.25 18.5165 2.25 16.9984C2.25 15.528 2.92473 14.0288 4.30573 13.2542C5.70273 12.4706 7.23166 11.8936 8.8508 11.5649C9.25674 11.4825 9.65261 11.7448 9.73501 12.1508Z" fill="#718E9C"/>
</svg>
