<svg width="24" height="24" viewBox="0 0 24 24" fill="none" xmlns="http://www.w3.org/2000/svg">
<path d="M13.0001 3.75C9.62292 3.75 6.78333 6.05981 5.97846 9.18694C5.87522 9.58808 5.46633 9.82957 5.06519 9.72633C4.66405 9.62308 4.42256 9.2142 4.52581 8.81306C5.49711 5.03928 8.92192 2.25 13.0001 2.25C17.8326 2.25 21.7501 6.16751 21.7501 11C21.7501 12.4457 21.3989 13.8113 20.7768 15.0144L21.7277 18.8181C21.7916 19.0737 21.7167 19.344 21.5304 19.5303C21.3441 19.7166 21.0738 19.7915 20.8182 19.7276L17.0145 18.7767C16.4397 19.0739 15.8276 19.3094 15.187 19.4743C14.7859 19.5775 14.377 19.336 14.2738 18.9349C14.1705 18.5338 14.412 18.1249 14.8132 18.0216C15.4261 17.8639 16.0077 17.6279 16.5469 17.3248C16.7139 17.2309 16.9105 17.2045 17.0963 17.251L19.9693 17.9692L19.2511 15.0962C19.2046 14.9104 19.231 14.7138 19.3249 14.5468C19.9139 13.499 20.2501 12.2899 20.2501 11C20.2501 6.99594 17.0042 3.75 13.0001 3.75Z" fill="#718E9C"/>
<path d="M8 15C7.44772 15 7 15.4477 7 16V16.01C7 16.5623 7.44772 17.01 8 17.01H8.01C8.56228 17.01 9.01 16.5623 9.01 16.01V16C9.01 15.4477 8.56228 15 8.01 15H8Z" fill="#718E9C"/>
<path d="M4.49023 16C4.49023 15.4477 4.93795 15 5.49023 15H5.50023C6.05252 15 6.50023 15.4477 6.50023 16V16.01C6.50023 16.5623 6.05252 17.01 5.50023 17.01H5.49023C4.93795 17.01 4.49023 16.5623 4.49023 16.01V16Z" fill="#718E9C"/>
<path d="M10.5 15C9.94772 15 9.5 15.4477 9.5 16V16.01C9.5 16.5623 9.94772 17.01 10.5 17.01H10.51C11.0623 17.01 11.51 16.5623 11.51 16.01V16C11.51 15.4477 11.0623 15 10.51 15H10.5Z" fill="#718E9C"/>
<path fill-rule="evenodd" clip-rule="evenodd" d="M2.25 16C2.25 12.8244 4.82436 10.25 8 10.25C11.1756 10.25 13.75 12.8244 13.75 16C13.75 19.1756 11.1756 21.75 8 21.75C7.15551 21.75 6.35189 21.5675 5.62793 21.2393L3.1471 21.7354C2.90121 21.7846 2.647 21.7076 2.46968 21.5303C2.29237 21.353 2.2154 21.0988 2.26458 20.8529L2.76074 18.3721C2.43252 17.6481 2.25 16.8445 2.25 16ZM8 11.75C5.65279 11.75 3.75 13.6528 3.75 16C3.75 16.6971 3.91726 17.353 4.21316 17.9317C4.29014 18.0822 4.31399 18.2544 4.28082 18.4202L3.95608 20.0439L5.57981 19.7192C5.74562 19.686 5.91777 19.7099 6.06833 19.7868C6.64706 20.0827 7.30291 20.25 8 20.25C10.3472 20.25 12.25 18.3472 12.25 16C12.25 13.6528 10.3472 11.75 8 11.75Z" fill="#718E9C"/>
</svg>
