<svg width="24" height="24" viewBox="0 0 24 24" fill="none" xmlns="http://www.w3.org/2000/svg">
<path d="M17.4902 14.5C16.9379 14.5 16.4902 14.9477 16.4902 15.5V15.51C16.4902 16.0623 16.9379 16.51 17.4902 16.51H17.5002C18.0525 16.51 18.5002 16.0623 18.5002 15.51V15.5C18.5002 14.9477 18.0525 14.5 17.5002 14.5H17.4902Z" fill="#718E9C"/>
<path fill-rule="evenodd" clip-rule="evenodd" d="M6.75 9.5C6.75 8.25736 7.75736 7.25 9 7.25C10.2426 7.25 11.25 8.25736 11.25 9.5C11.25 10.7426 10.2426 11.75 9 11.75C7.75736 11.75 6.75 10.7426 6.75 9.5ZM9 8.75C8.58579 8.75 8.25 9.08579 8.25 9.5C8.25 9.91421 8.58579 10.25 9 10.25C9.41421 10.25 9.75 9.91421 9.75 9.5C9.75 9.08579 9.41421 8.75 9 8.75Z" fill="#718E9C"/>
<path d="M6.75 15.5C6.75 14.8096 7.30964 14.25 8 14.25H10C10.6904 14.25 11.25 14.8096 11.25 15.5V16C11.25 16.4142 11.5858 16.75 12 16.75C12.4142 16.75 12.75 16.4142 12.75 16V15.5C12.75 13.9812 11.5188 12.75 10 12.75H8C6.48122 12.75 5.25 13.9812 5.25 15.5V16C5.25 16.4142 5.58579 16.75 6 16.75C6.41421 16.75 6.75 16.4142 6.75 16V15.5Z" fill="#718E9C"/>
<path d="M18.25 9C18.25 9.41421 17.9142 9.75 17.5 9.75L14 9.75C13.5858 9.75 13.25 9.41421 13.25 9C13.25 8.58579 13.5858 8.25 14 8.25L17.5 8.25C17.9142 8.25 18.25 8.58579 18.25 9Z" fill="#718E9C"/>
<path d="M15 12.75L17.5 12.75C17.9142 12.75 18.25 12.4142 18.25 12C18.25 11.5858 17.9142 11.25 17.5 11.25H15C14.5858 11.25 14.25 11.5858 14.25 12C14.25 12.4142 14.5858 12.75 15 12.75Z" fill="#718E9C"/>
<path fill-rule="evenodd" clip-rule="evenodd" d="M6 4.25C3.92893 4.25 2.25 5.92893 2.25 8V16C2.25 18.0711 3.92893 19.75 6 19.75H18C20.0711 19.75 21.75 18.0711 21.75 16V8C21.75 5.92893 20.0711 4.25 18 4.25H6ZM3.75 8C3.75 6.75736 4.75736 5.75 6 5.75H18C19.2426 5.75 20.25 6.75736 20.25 8V16C20.25 17.2426 19.2426 18.25 18 18.25H6C4.75736 18.25 3.75 17.2426 3.75 16V8Z" fill="#718E9C"/>
</svg>
