<svg width="24" height="24" viewBox="0 0 24 24" fill="none" xmlns="http://www.w3.org/2000/svg">
<path d="M9 10C8.44772 10 8 10.4477 8 11V11.01C8 11.5623 8.44772 12.01 9 12.01H9.01C9.56228 12.01 10.01 11.5623 10.01 11.01V11C10.01 10.4477 9.56228 10 9.01 10H9Z" fill="#718E9C"/>
<path d="M15 16C14.4477 16 14 16.4477 14 17V17.01C14 17.5623 14.4477 18.01 15 18.01H15.01C15.5623 18.01 16.01 17.5623 16.01 17.01V17C16.01 16.4477 15.5623 16 15.01 16H15Z" fill="#718E9C"/>
<path d="M11.25 17C11.25 17.4142 11.5858 17.75 12 17.75C12.4142 17.75 12.75 17.4142 12.75 17V11C12.75 10.5858 12.4142 10.25 12 10.25C11.5858 10.25 11.25 10.5858 11.25 11V17Z" fill="#718E9C"/>
<path d="M15 14.75C14.5858 14.75 14.25 14.4142 14.25 14V11C14.25 10.5858 14.5858 10.25 15 10.25C15.4142 10.25 15.75 10.5858 15.75 11V14C15.75 14.4142 15.4142 14.75 15 14.75Z" fill="#718E9C"/>
<path d="M8.25 17C8.25 17.4142 8.58579 17.75 9 17.75C9.41421 17.75 9.75 17.4142 9.75 17L9.75 14C9.75 13.5858 9.41421 13.25 9 13.25C8.58579 13.25 8.25 13.5858 8.25 14L8.25 17Z" fill="#718E9C"/>
<path fill-rule="evenodd" clip-rule="evenodd" d="M4.25 6C4.25 3.92893 5.92893 2.25 8 2.25H13.7574C14.7519 2.25 15.7057 2.64509 16.409 3.34835L18.6517 5.59099C19.3549 6.29425 19.75 7.24808 19.75 8.24264V18C19.75 20.0711 18.0711 21.75 16 21.75H8C5.92893 21.75 4.25 20.0711 4.25 18V6ZM8 3.75C6.75736 3.75 5.75 4.75736 5.75 6V18C5.75 19.2426 6.75736 20.25 8 20.25H16C17.2426 20.25 18.25 19.2426 18.25 18V8.24264C18.25 7.6459 18.0129 7.07361 17.591 6.65165L15.3483 4.40901C14.9264 3.98705 14.3541 3.75 13.7574 3.75H8Z" fill="#718E9C"/>
</svg>
