<svg width="24" height="24" viewBox="0 0 24 24" fill="none" xmlns="http://www.w3.org/2000/svg">
<path d="M7 3.25C4.92893 3.25 3.25 4.92893 3.25 7V17C3.25 19.0711 4.92893 20.75 7 20.75H9C9.41421 20.75 9.75 20.4142 9.75 20C9.75 19.5858 9.41421 19.25 9 19.25H7C5.75736 19.25 4.75 18.2426 4.75 17V7C4.75 5.75736 5.75736 4.75 7 4.75H17C18.2426 4.75 19.25 5.75736 19.25 7V9C19.25 9.41421 19.5858 9.75 20 9.75C20.4142 9.75 20.75 9.41421 20.75 9V7C20.75 4.92893 19.0711 3.25 17 3.25H7Z" fill="#718E9C"/>
<path d="M15.9902 19.5C15.9902 18.9477 16.4379 18.5 16.9902 18.5H17.0002C17.5525 18.5 18.0002 18.9477 18.0002 19.5V19.51C18.0002 20.0623 17.5525 20.51 17.0002 20.51H16.9902C16.4379 20.51 15.9902 20.0623 15.9902 19.51V19.5Z" fill="#718E9C"/>
<path d="M16.25 15.5C16.25 15.0858 16.5858 14.75 17 14.75C17.4142 14.75 17.75 15.0858 17.75 15.5C17.75 15.9142 17.4142 16.25 17 16.25C16.5858 16.25 16.25 16.5858 16.25 17C16.25 17.4142 16.5858 17.75 17 17.75C18.2426 17.75 19.25 16.7426 19.25 15.5C19.25 14.2574 18.2426 13.25 17 13.25C15.7574 13.25 14.75 14.2574 14.75 15.5C14.75 15.9142 15.0858 16.25 15.5 16.25C15.9142 16.25 16.25 15.9142 16.25 15.5Z" fill="#718E9C"/>
<path fill-rule="evenodd" clip-rule="evenodd" d="M17 11.25C13.8244 11.25 11.25 13.8244 11.25 17C11.25 20.1756 13.8244 22.75 17 22.75C20.1756 22.75 22.75 20.1756 22.75 17C22.75 13.8244 20.1756 11.25 17 11.25ZM12.75 17C12.75 14.6528 14.6528 12.75 17 12.75C19.3472 12.75 21.25 14.6528 21.25 17C21.25 19.3472 19.3472 21.25 17 21.25C14.6528 21.25 12.75 19.3472 12.75 17Z" fill="#718E9C"/>
<path d="M14 8.75H8C7.58579 8.75 7.25 8.41421 7.25 8C7.25 7.58579 7.58579 7.25 8 7.25L14 7.25C14.4142 7.25 14.75 7.58579 14.75 8C14.75 8.41421 14.4142 8.75 14 8.75Z" fill="#718E9C"/>
<path d="M10 11.75C10.4142 11.75 10.75 11.4142 10.75 11C10.75 10.5858 10.4142 10.25 10 10.25H8C7.58579 10.25 7.25 10.5858 7.25 11C7.25 11.4142 7.58579 11.75 8 11.75H10Z" fill="#718E9C"/>
</svg>
