<svg width="24" height="24" viewBox="0 0 24 24" fill="none" xmlns="http://www.w3.org/2000/svg">
<path fill-rule="evenodd" clip-rule="evenodd" d="M2.25 12C2.25 6.61522 6.61522 2.25 12 2.25C17.3848 2.25 21.75 6.61522 21.75 12C21.75 17.3848 17.3848 21.75 12 21.75C6.61522 21.75 2.25 17.3848 2.25 12ZM11 17C11 16.4477 11.4477 16 12 16H12.01C12.5623 16 13.01 16.4477 13.01 17V17.01C13.01 17.5623 12.5623 18.01 12.01 18.01H12C11.4477 18.01 11 17.5623 11 17.01V17ZM12 7.75C11.3096 7.75 10.75 8.30965 10.75 9C10.75 9.41422 10.4142 9.75 10 9.75C9.58579 9.75 9.25 9.41422 9.25 9C9.25 7.48122 10.4812 6.25 12 6.25C13.5188 6.25 14.75 7.48122 14.75 9C14.75 10.0177 14.0645 10.7564 13.6113 11.2447L13.5509 11.3099C13.0006 11.9056 12.75 12.229 12.75 12.6019V13.5C12.75 13.9142 12.4142 14.25 12 14.25C11.5858 14.25 11.25 13.9142 11.25 13.5V12.6019C11.25 11.5842 11.9355 10.8455 12.3887 10.3572L12.4491 10.292C12.9994 9.69632 13.25 9.37291 13.25 9C13.25 8.30965 12.6904 7.75 12 7.75Z" fill="#4E91E6"/>
</svg>
